<svg width="152" height="28" viewBox="0 0 152 28" fill="none" xmlns="http://www.w3.org/2000/svg">
<g filter="url(#filter0_d)">
<path d="M12.242 0.592H15.57L17.676 6.702L19.808 0.592H23.11L19.938 8.99L22.278 14.866L27.504 0.539999H31.404L24.02 19H20.926L17.676 11.252L14.452 19H11.358L4 0.539999H7.848L13.1 14.866L15.388 8.99L12.242 0.592ZM38.227 19.26C36.7536 19.26 35.4796 18.9393 34.405 18.298C33.3476 17.6567 32.5243 16.8073 31.935 15.75C31.3456 14.6753 31.051 13.514 31.051 12.266C31.051 10.9833 31.337 9.80467 31.909 8.73C32.4983 7.638 33.3303 6.77133 34.405 6.13C35.4796 5.47133 36.7623 5.142 38.253 5.142C39.7436 5.142 41.0176 5.47133 42.075 6.13C43.1323 6.77133 43.9383 7.62933 44.493 8.704C45.065 9.76133 45.351 10.9053 45.351 12.136C45.351 12.5867 45.325 12.9767 45.273 13.306H34.743C34.8296 14.3633 35.2196 15.1953 35.913 15.802C36.6236 16.4087 37.4383 16.712 38.357 16.712C39.0503 16.712 39.7003 16.5473 40.307 16.218C40.931 15.8713 41.3556 15.4207 41.581 14.866L44.571 15.698C44.0683 16.738 43.2623 17.596 42.153 18.272C41.0436 18.9307 39.735 19.26 38.227 19.26ZM34.665 11.096H41.789C41.685 10.0733 41.295 9.25 40.619 8.626C39.9603 7.98467 39.1543 7.664 38.201 7.664C37.265 7.664 36.459 7.98467 35.783 8.626C35.1243 9.25 34.7516 10.0733 34.665 11.096ZM56.0014 19.26C54.9614 19.26 54.0341 19.026 53.2194 18.558C52.4048 18.09 51.7634 17.4487 51.2954 16.634V19H48.2534V0.0199995H51.7374V7.768C52.2228 6.95333 52.8554 6.312 53.6354 5.844C54.4328 5.376 55.3601 5.142 56.4174 5.142C57.5961 5.142 58.6274 5.47133 59.5114 6.13C60.4128 6.77133 61.1148 7.62933 61.6174 8.704C62.1201 9.77867 62.3714 10.9573 62.3714 12.24C62.3714 13.5573 62.0941 14.7447 61.5394 15.802C60.9848 16.8593 60.2221 17.7 59.2514 18.324C58.2981 18.948 57.2148 19.26 56.0014 19.26ZM55.0394 16.296C55.7848 16.296 56.4348 16.114 56.9894 15.75C57.5614 15.386 58.0034 14.9007 58.3154 14.294C58.6448 13.67 58.8094 12.994 58.8094 12.266C58.8094 11.5207 58.6534 10.836 58.3414 10.212C58.0468 9.57067 57.6308 9.05933 57.0934 8.678C56.5561 8.29667 55.9408 8.106 55.2474 8.106C54.4848 8.106 53.7828 8.366 53.1414 8.886C52.5174 9.38867 52.0494 10.0127 51.7374 10.758V14.008C51.9628 14.684 52.4048 15.2387 53.0634 15.672C53.7221 16.088 54.3808 16.296 55.0394 16.296Z" fill="#2196F3"/>
<path d="M76.8479 5.376C76.6919 5.20267 76.3626 4.97733 75.8599 4.7C75.3573 4.40533 74.7506 4.14533 74.0399 3.92C73.3466 3.67733 72.6273 3.556 71.8819 3.556C69.9233 3.556 68.9439 4.24933 68.9439 5.636C68.9439 6.13867 69.0999 6.53733 69.4119 6.832C69.7239 7.12667 70.1919 7.378 70.8159 7.586C71.4399 7.794 72.2199 8.01933 73.1559 8.262C74.3693 8.574 75.4179 8.938 76.3019 9.354C77.2033 9.77 77.8879 10.3247 78.3559 11.018C78.8413 11.694 79.0839 12.5953 79.0839 13.722C79.0839 15.0393 78.7633 16.1053 78.1219 16.92C77.4979 17.7173 76.6659 18.298 75.6259 18.662C74.5859 19.026 73.4593 19.208 72.2459 19.208C70.8593 19.208 69.4813 19 68.1119 18.584C66.7599 18.1507 65.5553 17.5613 64.4979 16.816L66.0839 13.722C66.2399 13.878 66.5173 14.086 66.9159 14.346C67.3146 14.5887 67.7999 14.84 68.3719 15.1C68.9439 15.3427 69.5679 15.5507 70.2439 15.724C70.9199 15.8973 71.6046 15.984 72.2979 15.984C74.2739 15.984 75.2619 15.3513 75.2619 14.086C75.2619 13.5487 75.0626 13.1153 74.6639 12.786C74.2653 12.4567 73.7019 12.1793 72.9739 11.954C72.2633 11.7287 71.4313 11.4773 70.4779 11.2C69.2993 10.8707 68.3199 10.5067 67.5399 10.108C66.7773 9.692 66.2053 9.18067 65.8239 8.574C65.4426 7.95 65.2519 7.16133 65.2519 6.208C65.2519 4.94267 65.5466 3.88533 66.1359 3.036C66.7426 2.16933 67.5573 1.51933 68.5799 1.086C69.6026 0.635333 70.7379 0.409999 71.9859 0.409999C73.2686 0.409999 74.4646 0.617999 75.5739 1.034C76.6833 1.45 77.6366 1.92667 78.4339 2.464L76.8479 5.376ZM90.0966 18.298C89.6286 18.506 89.0479 18.714 88.3546 18.922C87.6786 19.13 86.9766 19.234 86.2486 19.234C85.6072 19.234 85.0179 19.1213 84.4806 18.896C83.9432 18.6707 83.5099 18.3153 83.1806 17.83C82.8686 17.3273 82.7126 16.6773 82.7126 15.88V8.054H80.9186V5.376H82.7126V0.956H86.1966V5.376H89.0566V8.054H86.1966V14.71C86.1966 15.178 86.3179 15.516 86.5606 15.724C86.8206 15.932 87.1326 16.036 87.4966 16.036C87.8606 16.036 88.2159 15.9753 88.5626 15.854C88.9092 15.7327 89.1866 15.6287 89.3946 15.542L90.0966 18.298ZM92.5611 13.904V5.376H96.0451V13.15C96.0451 15.2473 96.7991 16.296 98.3071 16.296C98.9831 16.296 99.6331 16.0967 100.257 15.698C100.898 15.282 101.418 14.658 101.817 13.826V5.376H105.301V15.1C105.301 15.4813 105.362 15.75 105.483 15.906C105.604 16.0447 105.821 16.1313 106.133 16.166V19C105.786 19.0693 105.492 19.1127 105.249 19.13C105.024 19.1473 104.816 19.156 104.625 19.156C104.001 19.156 103.49 19.0173 103.091 18.74C102.71 18.4453 102.484 18.0467 102.415 17.544L102.337 16.452C101.73 17.388 100.95 18.09 99.9971 18.558C99.0437 19.026 97.9951 19.26 96.8511 19.26C95.4471 19.26 94.3811 18.8093 93.6531 17.908C92.9251 16.9893 92.5611 15.6547 92.5611 13.904ZM108.711 12.188C108.711 10.888 108.971 9.70067 109.491 8.626C110.011 7.55133 110.731 6.702 111.649 6.078C112.568 5.454 113.617 5.142 114.795 5.142C115.801 5.142 116.702 5.39333 117.499 5.896C118.314 6.38133 118.947 7.00533 119.397 7.768V0.0199995H122.881V15.1C122.881 15.4813 122.942 15.75 123.063 15.906C123.185 16.0447 123.393 16.1313 123.687 16.166V19C123.063 19.1213 122.569 19.182 122.205 19.182C121.581 19.182 121.061 19.026 120.645 18.714C120.247 18.402 120.021 17.9947 119.969 17.492L119.917 16.634C119.415 17.4833 118.73 18.1333 117.863 18.584C117.014 19.0347 116.121 19.26 115.185 19.26C113.92 19.26 112.802 18.948 111.831 18.324C110.861 17.6827 110.098 16.8333 109.543 15.776C108.989 14.7013 108.711 13.5053 108.711 12.188ZM119.397 14.008V10.758C119.12 9.99533 118.643 9.36267 117.967 8.86C117.291 8.35733 116.598 8.106 115.887 8.106C115.177 8.106 114.553 8.30533 114.015 8.704C113.478 9.08533 113.062 9.59667 112.767 10.238C112.473 10.862 112.325 11.538 112.325 12.266C112.325 13.0113 112.49 13.696 112.819 14.32C113.149 14.9267 113.591 15.412 114.145 15.776C114.717 16.1227 115.367 16.296 116.095 16.296C116.754 16.296 117.404 16.0793 118.045 15.646C118.704 15.2127 119.155 14.6667 119.397 14.008ZM127.081 3.478V0.0199995H130.565V3.478H127.081ZM127.081 19V5.376H130.565V19H127.081ZM140.78 19.26C139.289 19.26 138.007 18.9393 136.932 18.298C135.875 17.6393 135.06 16.7727 134.488 15.698C133.916 14.6233 133.63 13.462 133.63 12.214C133.63 10.9487 133.916 9.77867 134.488 8.704C135.077 7.62933 135.901 6.77133 136.958 6.13C138.033 5.47133 139.307 5.142 140.78 5.142C142.253 5.142 143.519 5.47133 144.576 6.13C145.651 6.77133 146.474 7.62933 147.046 8.704C147.618 9.77867 147.904 10.9487 147.904 12.214C147.904 13.462 147.618 14.6233 147.046 15.698C146.474 16.7727 145.651 17.6393 144.576 18.298C143.519 18.9393 142.253 19.26 140.78 19.26ZM137.218 12.214C137.218 13.0113 137.374 13.722 137.686 14.346C137.998 14.9527 138.423 15.4293 138.96 15.776C139.497 16.1227 140.104 16.296 140.78 16.296C141.439 16.296 142.037 16.1227 142.574 15.776C143.111 15.412 143.536 14.9267 143.848 14.32C144.177 13.696 144.342 12.9853 144.342 12.188C144.342 11.408 144.177 10.7147 143.848 10.108C143.536 9.484 143.111 8.99867 142.574 8.652C142.037 8.288 141.439 8.106 140.78 8.106C140.104 8.106 139.497 8.288 138.96 8.652C138.423 8.99867 137.998 9.484 137.686 10.108C137.374 10.7147 137.218 11.4167 137.218 12.214Z" fill="black"/>
</g>
<defs>
<filter id="filter0_d" x="0" y="0.0200195" width="151.904" height="27.24" filterUnits="userSpaceOnUse" color-interpolation-filters="sRGB">
<feFlood flood-opacity="0" result="BackgroundImageFix"/>
<feColorMatrix in="SourceAlpha" type="matrix" values="0 0 0 0 0 0 0 0 0 0 0 0 0 0 0 0 0 0 127 0" result="hardAlpha"/>
<feOffset dy="4"/>
<feGaussianBlur stdDeviation="2"/>
<feComposite in2="hardAlpha" operator="out"/>
<feColorMatrix type="matrix" values="0 0 0 0 0 0 0 0 0 0 0 0 0 0 0 0 0 0 0.25 0"/>
<feBlend mode="normal" in2="BackgroundImageFix" result="effect1_dropShadow"/>
<feBlend mode="normal" in="SourceGraphic" in2="effect1_dropShadow" result="shape"/>
</filter>
</defs>
</svg>
